<svg viewBox="0 0 12 13" fill="none" stroke="#6f7787"  xmlns="http://www.w3.org/2000/svg">
<path d="M9.90039 4.40002C10.0595 4.40002 10.2121 4.46324 10.3247 4.57576C10.4372 4.68828 10.5004 4.84089 10.5004 5.00002V8.30002C10.5004 8.45915 10.4372 8.61177 10.3247 8.72429C10.2121 8.83681 10.0595 8.90002 9.90039 8.90002H9.30039L9.30039 10.4L7.20039 8.90002H5.40039"  stroke-width="0.72" stroke-miterlimit="10" stroke-linecap="square"/>
<path d="M8.1 2.29999L2.1 2.29999C1.94087 2.29999 1.78826 2.3632 1.67574 2.47572C1.56321 2.58825 1.5 2.74086 1.5 2.89999L1.5 6.79999C1.5 6.95912 1.56321 7.11173 1.67574 7.22425C1.78826 7.33677 1.94087 7.39999 2.1 7.39999H3L3 9.49999L5.4 7.39999L8.1 7.39999C8.25913 7.39999 8.41174 7.33677 8.52426 7.22425C8.63679 7.11173 8.7 6.95912 8.7 6.79999V2.89999C8.7 2.74086 8.63679 2.58825 8.52426 2.47572C8.41174 2.3632 8.25913 2.29999 8.1 2.29999Z" stroke-width="0.72" stroke-miterlimit="10" stroke-linecap="square"/>
</svg>
