<svg viewBox="0 0 20 21" fill="none" stroke="none"  xmlns="http://www.w3.org/2000/svg">
<g id="Frame">
<path id="Vector" d="M10 12C10.8284 12 11.5 11.3284 11.5 10.5C11.5 9.67157 10.8284 9 10 9C9.17157 9 8.5 9.67157 8.5 10.5C8.5 11.3284 9.17157 12 10 12Z"  stroke-miterlimit="10" stroke-linecap="round" stroke-linejoin="round"/>
<path id="Vector_2" d="M16 12C16.8284 12 17.5 11.3284 17.5 10.5C17.5 9.67157 16.8284 9 16 9C15.1716 9 14.5 9.67157 14.5 10.5C14.5 11.3284 15.1716 12 16 12Z"  stroke-miterlimit="10" stroke-linecap="round" stroke-linejoin="round"/>
<path id="Vector_3" d="M4 12C4.82843 12 5.5 11.3284 5.5 10.5C5.5 9.67157 4.82843 9 4 9C3.17157 9 2.5 9.67157 2.5 10.5C2.5 11.3284 3.17157 12 4 12Z"  stroke-miterlimit="10" stroke-linecap="round" stroke-linejoin="round"/>
</g>
</svg>
