<svg viewBox="0 0 24 25" fill="none" xmlns="http://www.w3.org/2000/svg">
<path d="M21.6004 12.5C21.6001 10.6654 21.0742 8.86939 20.0848 7.32446C19.0955 5.77954 17.6842 4.55043 16.0181 3.78266C14.3519 3.01488 12.5007 2.74059 10.6835 2.99225C8.86627 3.24391 7.15923 4.01099 5.76443 5.20267C4.36964 6.39435 3.34551 7.96073 2.81327 9.71638C2.28104 11.472 2.263 13.3434 2.76129 15.109C3.25957 16.8746 4.25332 18.4604 5.62488 19.6787C6.99644 20.8971 8.68838 21.6969 10.5004 21.9836L10.5004 15.275H8.06319V12.5H10.5004V10.385C10.5004 7.97898 11.9338 6.64998 14.1262 6.64998C14.8462 6.65997 15.5645 6.72254 16.2754 6.83718V9.19998H15.0646C14.8583 9.17258 14.6484 9.19196 14.4506 9.25668C14.2528 9.32141 14.0721 9.42982 13.9218 9.57388C13.7716 9.71794 13.6557 9.89396 13.5828 10.0889C13.5098 10.2838 13.4817 10.4927 13.5004 10.7V12.5H16.1632L15.7372 15.275H13.5004L13.5004 21.9836C15.7587 21.6263 17.8153 20.4748 19.3002 18.7363C20.7851 16.9978 21.6008 14.7863 21.6004 12.5Z" fill="#2E6FE8"/>
</svg>
