<svg viewBox="0 0 24 25" fill="none" xmlns="http://www.w3.org/2000/svg">
<path d="M19.8 3.5L4.2 3.5C3.88174 3.5 3.57652 3.62643 3.35147 3.85147C3.12643 4.07652 3 4.38174 3 4.7L3 20.3C3 20.6183 3.12643 20.9235 3.35147 21.1485C3.57652 21.3736 3.88174 21.5 4.2 21.5L19.8 21.5C20.1183 21.5 20.4235 21.3736 20.6485 21.1485C20.8736 20.9235 21 20.6183 21 20.3L21 4.7C21 4.38174 20.8736 4.07652 20.6485 3.85147C20.4235 3.62643 20.1183 3.5 19.8 3.5ZM8.3322 18.8564H5.6244L5.6244 10.25H8.3322L8.3322 18.8564ZM6.978 9.0686C6.6667 9.06765 6.36266 8.97447 6.10429 8.80083C5.84591 8.6272 5.64479 8.38088 5.52632 8.09301C5.40784 7.80513 5.37734 7.4886 5.43865 7.1834C5.49996 6.8782 5.65035 6.59801 5.8708 6.37822C6.09126 6.15843 6.37191 6.0089 6.67729 5.94852C6.98268 5.88814 7.29912 5.91961 7.58663 6.03895C7.87414 6.1583 8.11984 6.36018 8.29269 6.61908C8.46555 6.87798 8.5578 7.1823 8.5578 7.4936C8.55788 7.70086 8.51704 7.90609 8.43761 8.09753C8.35819 8.28897 8.24175 8.46284 8.09497 8.60917C7.9482 8.7555 7.77397 8.87141 7.58229 8.95025C7.39062 9.02909 7.18526 9.06931 6.978 9.0686ZM18.3726 18.8564H15.72V14.6936C15.72 13.6814 15.72 12.4436 14.31 12.4436C12.9 12.4436 12.7302 13.5128 12.7302 14.6372V18.9128H10.08L10.08 10.25L12.5616 10.25V11.4314H12.618C12.8739 10.9889 13.2453 10.6243 13.6925 10.3766C14.1396 10.1288 14.6457 10.0073 15.1566 10.025C17.8644 10.025 18.372 11.825 18.372 14.1314L18.3726 18.8564Z" fill="#7797E4"/>
</svg>
