<svg viewBox="0 0 24 25" stroke="black" fill="none" xmlns="http://www.w3.org/2000/svg">
<path d="M9.42871 14.2143L18.0001 14.2143" stroke-width="2.05714" stroke-miterlimit="10" stroke-linecap="square"/>
<path d="M9.42871 17.6429L18.0001 17.6429" stroke-width="2.05714" stroke-miterlimit="10" stroke-linecap="square"/>
<path d="M18.0001 7.35712L9.42871 7.35712V10.7857L18.0001 10.7857V7.35712Z" stroke-width="2.05714" stroke-miterlimit="10" stroke-linecap="square"/>
<path d="M4.28557 21.9285C3.83134 21.9272 3.39609 21.7461 3.07489 21.4249C2.75369 21.1037 2.57265 20.6685 2.57129 20.2143L2.57129 13.3571H3.42843" stroke-width="2.05714" stroke-miterlimit="10" stroke-linecap="square"/>
<path d="M6.00042 3.07141L6.00042 20.2143C5.99906 20.6685 5.81801 21.1038 5.49682 21.425C5.17562 21.7462 4.74037 21.9272 4.28613 21.9286L19.7147 21.9286C20.1689 21.9272 20.6042 21.7462 20.9254 21.425C21.2466 21.1038 21.4276 20.6685 21.429 20.2143L21.429 3.07141L6.00042 3.07141Z" stroke-width="2.05714" stroke-miterlimit="10" stroke-linecap="square"/>
</svg>
