<svg viewBox="0 0 16 17" xmlns="http://www.w3.org/2000/svg">
<g id="Frame">
<path id="Vector" d="M7.49114 1.96689C7.67947 1.51408 8.32094 1.51409 8.50927 1.9669L10.0583 5.69129C10.1377 5.88218 10.3173 6.01261 10.5233 6.02914L14.5441 6.35148C15.033 6.39067 15.2312 7.00072 14.8587 7.31974L11.7953 9.94394C11.6383 10.0784 11.5697 10.2895 11.6177 10.4905L12.5537 14.4141C12.6675 14.8912 12.1485 15.2682 11.73 15.0126L8.2876 12.91C8.1112 12.8023 7.88927 12.8023 7.71287 12.91L4.27047 15.0126C3.85196 15.2682 3.33301 14.8912 3.4468 14.4141L4.38272 10.4905C4.4307 10.2895 4.36212 10.0784 4.20511 9.94394L1.14168 7.31974C0.769236 7.00072 0.967456 6.39067 1.4563 6.35148L5.4771 6.02914C5.68318 6.01261 5.8627 5.88218 5.9421 5.69129L7.49114 1.96689Z" />
</g>
<defs>
<linearGradient id="paint0_linear_1_344" x1="0.948242" y1="1.62729" x2="15.0522" y2="1.62729" gradientUnits="userSpaceOnUse">
<stop offset="0.4999" stop-color="#DEE1E6"/>
<stop offset="0.5" stop-color="#DEE1E6"/>
</linearGradient>
</defs>
</svg>
