<svg viewBox="0 0 24 25" fill="none" xmlns="http://www.w3.org/2000/svg">
<path d="M21.5998 6.55995C20.8798 6.85995 20.1598 7.09995 19.3198 7.15995C20.1598 6.67995 20.7598 5.89995 21.0598 4.99995C20.2798 5.47995 19.4398 5.77995 18.5398 5.95995C17.8198 5.17995 16.7998 4.69995 15.7198 4.69995C13.5598 4.69995 11.7598 6.43995 11.7598 8.65995C11.7598 8.95995 11.8198 9.25995 11.8798 9.55995C8.57984 9.37995 5.69984 7.81995 3.71984 5.41995C3.35984 6.01995 3.17984 6.67995 3.17984 7.39995C3.17984 8.77995 3.89984 9.97995 4.91984 10.7C4.25984 10.7 3.65984 10.52 3.11984 10.22V10.28C3.11984 12.2 4.49984 13.76 6.29984 14.12C5.93984 14.18 5.63984 14.24 5.27984 14.24C5.03984 14.24 4.79984 14.24 4.55984 14.18C5.03984 15.74 6.53984 16.88 8.21984 16.94C6.89984 18.02 5.15984 18.62 3.29984 18.62C2.99984 18.62 2.63984 18.62 2.33984 18.56C4.13984 19.64 6.23984 20.3 8.45984 20.3C15.7198 20.3 19.6798 14.3 19.6798 9.07995C19.6798 8.89995 19.6798 8.71995 19.6798 8.59995C20.3998 7.99995 21.0598 7.33995 21.5998 6.55995Z" fill="#2EBAE8"/>
</svg>
