<svg width="" height="" viewBox="0 0 12 13" fill="none" xmlns="http://www.w3.org/2000/svg">
<g id="Frame">
<path id="Vector" d="M5.99961 6.8C6.49667 6.8 6.89961 6.39706 6.89961 5.9C6.89961 5.40294 6.49667 5 5.99961 5C5.50255 5 5.09961 5.40294 5.09961 5.9C5.09961 6.39706 5.50255 6.8 5.99961 6.8Z" fill="#6f7787"/>
<path id="Vector_2" d="M1.62271 6.8546C1.5436 6.7531 1.50044 6.6282 1.5 6.49951C1.49957 6.37082 1.54189 6.24563 1.62031 6.1436C2.22661 5.3486 3.86581 3.5 6.00001 3.5C8.10601 3.5 9.76081 5.3474 10.3755 6.143C10.455 6.24504 10.4981 6.37067 10.4981 6.5C10.4981 6.62933 10.455 6.75496 10.3755 6.857C9.76081 7.6526 8.10601 9.5 6.00001 9.5C3.89401 9.5 2.23591 7.6484 1.62271 6.8546Z" stroke="#6f7787" stroke-width="0.72" stroke-miterlimit="10" stroke-linecap="square"/>
<path id="Vector_3" d="M5.99961 8.3C7.32509 8.3 8.39961 7.22548 8.39961 5.9C8.39961 4.57452 7.32509 3.5 5.99961 3.5C4.67413 3.5 3.59961 4.57452 3.59961 5.9C3.59961 7.22548 4.67413 8.3 5.99961 8.3Z" stroke="#6f7787" stroke-width="0.72" stroke-miterlimit="10" stroke-linecap="square"/>
<path id="Vector_4" d="M5.99961 6.8C6.49667 6.8 6.89961 6.39706 6.89961 5.9C6.89961 5.40294 6.49667 5 5.99961 5C5.50255 5 5.09961 5.40294 5.09961 5.9C5.09961 6.39706 5.50255 6.8 5.99961 6.8Z" stroke="#6f7787" stroke-width="0.72" stroke-miterlimit="10" stroke-linecap="square"/>
</g>
</svg>
